<?xml version="1.0" encoding="UTF-8"?>
<svg id="Layer_2" data-name="Layer 2" xmlns="http://www.w3.org/2000/svg" viewBox="0 0 1920 1080">
  <defs>
    <style>
      .cls-1 {
        fill: none;
      }

      .cls-1, .cls-2 {
        stroke: #000;
        stroke-miterlimit: 10;
      }

      .cls-2 {
        fill: #fff;
      }
    </style>
  </defs>
  <path class="cls-2" d="m749.64,737.87c33.15-134.66,74.57-267.29,123.94-396.89,8.04-21.1,17.91-43.95,38.15-53.96,14-6.91,30.39-6.27,45.97-5.22,54.83,3.67,109.46,10.35,163.56,20,15.5,2.76,32.17,6.44,42.52,18.31,14.35,16.44,10.88,41.4,5.8,62.62-31.86,133.28-93.18,257.38-154.02,380.17-5.27,10.63-10.8,21.6-19.99,29.12-14.39,11.77-34.56,12.68-53.14,12.39-58.3-.9-116.5-8.28-173.19-21.95-5.44-1.31-11.36-3.02-14.47-7.67s-.59-12.84,5-12.64c-3.36-11.38-6.72-22.76-10.15-24.26Z"/>
  <path class="cls-2" d="m915.37,309.51c-66.64,117.61-57.45,266.63-123.66,384.48-8.55,15.22-18.51,33.55-10.28,48.94,5.44,10.18,17.11,15.05,27.89,19.17,26.89,10.28,54.08,20.63,82.6,24.57s58.92.97,83.54-13.95c30.98-18.78,48.67-53.62,58.59-88.46,9.93-34.83,13.69-71.29,25.15-105.65,18.8-56.35,57.65-105.13,71.02-163.01,6.02-26.06,5.85-55.77-10.66-76.8-22.24-28.31-63.74-30.05-99.73-29.32-36.63.74-73.27,1.48-104.46.03Z"/>
  <path class="cls-2" d="m1077.81,293.8l6.73-9.91c13.9,2.74,27.81,5.48,41.71,8.22,3.51.69,7.26,1.51,9.7,4.13s2.5,7.66-.74,9.18"/>
  <path class="cls-2" d="m1172.62,381.2c1.28,10.9-1.22,22.21-6.97,31.57-1.3,2.12-2.94,4.27-5.33,4.94-4.01,1.13-8.03-2.7-8.72-6.81s.95-8.21,2.56-12.05c1.88-4.51,3.82-9.11,7.11-12.73s8.24-6.1,11.35-4.92Z"/>
  <path class="cls-2" d="m1154.19,429.07c2.66,13.08-1.54,27.36-10.87,36.91-6.23-12.25-1.79-28.86,10.87-36.91Z"/>
  <path class="cls-2" d="m832.67,786.53c-2.12-.14-3.33-3.19-1.88-4.74,10.49,6.78,23.79,9.06,35.93,6.16-1.62,5.19-7.29,8.25-12.72,8.53s-10.71-1.64-15.8-3.52c-5.53-2.05-12.28-6.39-5.53-6.43Z"/>
  <path class="cls-2" d="m1466.33,786.46c-2.84-12.43-5.67-24.86-8.51-37.3"/>
  <path class="cls-2" d="m922.97,341.06c-7.75,14.43-13.86,29.73-18.18,45.53-1.68,6.15-2.96,13.19.54,18.51,3.19,4.85,9.34,6.68,15.03,7.86,10.8,2.25,21.82,3.47,32.86,3.64,4.13.06,8.69-.18,11.71-3.01,2.89-2.7,3.53-6.97,4-10.9,2.23-18.58,4.46-37.17,6.69-55.75-18.54.39-37.07.77-52.64-5.88Z"/>
  <path class="cls-2" d="m1000.52,350.07c-14.65,24.73-22.45,53.48-22.31,82.22,14.65.35,29.31.7,43.96,1.05,3.26.08,6.8.07,9.41-1.89,3.97-2.97,3.92-8.8,3.78-13.76-.56-18.99,3-38.1,10.38-55.61-16.48-3.75-33.53-5.01-45.22-12.02Z"/>
  <path class="cls-2" d="m1066.86,359.81c-2.74,24.08-9.76,47.66-20.64,69.32,19.91,5.79,40.57,8.96,61.3,9.42,5.05-21.27,7.41-43.18,7.02-65.03-18.8-6.37-38.63-9.67-47.68-13.7Z"/>
  <path class="cls-2" d="m884.83,451.85c-13.13,24.15-19.65,51.85-18.68,79.33,16.73,1.83,33.46,3.66,50.19,5.48,3.48.38,7.11.74,10.4-.46,5.58-2.04,8.65-7.96,10.73-13.53,7.42-19.9,8.8-42,3.91-62.67-19.32.29-38.67-.85-56.55-8.16Z"/>
  <path class="cls-2" d="m974.16,460.19c-10.66,19.34-19.41,39.73-26.07,60.78-1.01,3.2-1.89,6.98.12,9.67,3.4,4.56,10.42,1.43,15.75-.55,8.47-3.13,18.4-1.97,25.92,3.03,2.47,1.64,5.14,3.78,8.03,3.14,3.02-.67,4.53-3.99,5.53-6.92,6.19-18.14,10.01-37.08,11.33-56.2-13.52-8.91-30.94-11.63-40.59-12.96Z"/>
  <path class="cls-2" d="m1039.09,469.18c-7.5,24.09-15,48.17-22.49,72.26,14.75-7.97,31.68-11.83,48.43-11.05,4.41-20.58,8.82-41.15,13.23-61.73-17-.65-33.99-1.31-39.16.53Z"/>
  <path class="cls-2" d="m870.94,560.74c-9.83,20.01-14.95,42.33-14.82,64.63,7.07,6.19,14.28,12.46,22.83,16.37s18.77,5.2,27.29,1.22c13.22-6.18,18.05-22.2,21.27-36.43,1.46-6.43,2.88-13.14,1.39-19.57-2.55-11.03-13.33-18.63-24.42-20.89s-22.56-.24-33.53-5.33Z"/>
  <path class="cls-2" d="m964.23,571.74c-3.17-1.95-7.55-.42-9.97,2.41s-3.36,6.6-4.23,10.22c-4.73,19.7-9.46,39.41-14.19,59.11,6.28-5.74,15.13-8.56,23.57-7.49,4.2.53,8.57,1.95,12.55.5,4.23-1.54,6.72-5.89,8.26-10.11,7.01-19.23,1.16-44.06-15.99-54.63Z"/>
  <path class="cls-2" d="m1014.33,567.81c-6.75,1.87-11.73,7.81-14.4,14.29-2.67,6.48-3.4,13.55-4.41,20.48-2.36,16.16-6.34,32.08-11.88,47.44,10.97-2.15,22.08-4.35,32.13-9.25s19.07-12.9,22.76-23.45c3.46-9.89,1.9-20.86-1.28-30.84-3.16-9.92-9.43-22.4-22.92-18.66Z"/>
  <path class="cls-2" d="m814.71,682.81c42.22,12.46,85.56,21.08,129.3,26.13,9.22,1.06,18.63,2.01,27.15,5.68s16.21,10.59,18.27,19.64c2.96,13.02-6.82,26.24-19,31.71-12.18,5.47-26.09,5.04-39.42,4.33-40.01-2.12-80.54-5.92-117.95-20.26-7.1-2.72-14.39-6.08-18.87-12.22-6.25-8.59-5.37-20.79-.59-30.28s12.8-16.87,21.1-24.71Z"/>
  <path class="cls-2" d="m828.45,696.18c-9.58,3.88-17.61,11.44-22.08,20.75-3.93,8.21-4.44,19.45,2.68,25.12,7.23,5.76,18.48,2.41,24.91-4.23,11.89-12.28,11.01-34.53-1.81-45.83-.17,1.61-.47,2.88-3.71,4.19Z"/>
  <path class="cls-2" d="m875.47,711.87l-4.26-2.23c0,16.5-4.36,32.97-12.51,47.31,17.07-2.19,34.46-1.91,51.45.84-.88-16.89-1.77-33.77-2.65-50.66-16.31,3.88-32.63,7.76-32.02,4.73Z"/>
  <path class="cls-1" d="m938.49,715.42c-4.54,4.69-9.16,9.5-11.92,15.42s-3.35,13.25.12,18.77,11.74,8.03,16.92,4.06c10.64-.64,19.67-11.07,18.78-21.69s-11.55-19.4-23.9-16.55Z"/>
  <path class="cls-1" d="m753.94,818.6c-72.59-52.76-110.2-149.57-92.26-237.5,12.8-62.73,50.84-119,57.72-182.64,6.2-57.33-15.19-117.02-56.38-157.37"/>
  <path class="cls-1" d="m686.46,503.47c12.06-26.33,24.34-53.02,42.95-75.21,18.61-22.19,44.65-39.73,73.54-41.71-19.81,82.61-77.31,155.38-116.49,116.92Z"/>
  <path class="cls-1" d="m682.19,673.19c-27.29-27.12-54.57-54.24-81.86-81.36-5.94-5.9-13.08-12.26-21.41-11.41-9.01.92-15.14,10.53-15.2,19.59s4.4,17.48,9.17,25.17c26.64,43.01,65.81,76.53,109.3,48.01Z"/>
  <path class="cls-1" d="m709.68,323.58c8.67-38.23,30.08-73.47,60.03-98.76-2.64,50.22-15.08,99.9-60.03,98.76Z"/>
  <path class="cls-1" d="m914.15,829.59c35.82,29.74,90.91,27.5,130.98,3.8s66.97-64.85,85.02-107.77c18.04-42.91,28.56-88.59,44.42-132.36,15.86-43.77,38.1-86.87,74.15-116.32,28.42-23.21,63.53-36.44,94.75-55.71,31.23-19.27,60.4-48.14,64.12-84.65"/>
  <path class="cls-1" d="m1281.16,464.07c26.31-5.63,52.63-11.25,78.94-16.88,9.92-2.12,21.44-3.89,29.23,2.62,10.66,8.89,6.35,26.68-2.56,37.32-17.73,21.17-46.81,28.15-73.81,33.93-40.29,8.62-80.58,17.24-120.87,25.86"/>
  <path class="cls-1" d="m1139.16,707.57c5.22-23.92,4.4-49.14-2.36-72.67-2.91-10.14-10.82-22.07-20.93-19.06-5.04,1.5-8.23,6.38-10.57,11.09-10.64,21.44-12.51,46.39-9.52,70.14,2.99,23.75,10.56,46.65,43.39,10.51Z"/>
  <path class="cls-1" d="m1316.11,421.61c9.78-28.8,14.34-59.36,13.37-89.76-.22-6.87-1.87-15.29-8.44-17.29-5.04-1.54-10.23,1.74-14.17,5.25-22.34,19.89-31.5,53.34-22.43,81.84,5.72,17.95,25.02,39.55,31.67,19.97Z"/>
  <path class="cls-1" d="m594.04,567.48c-.39-53.54,28.89-103.78,67.51-140.86,38.62-37.08,86.2-63.18,132.71-89.71,46.51-26.52,93.31-54.51,129.14-94.3,31.55-35.04,59.67-81.99,106.5-87.46,20.04-2.34,40.12,3.82,60.29,3.63s43.23-10.2,47.07-30"/>
  <path class="cls-1" d="m1054.67,163.18c16.8,7.38,32.63,16.99,46.92,28.51,6.41,5.17,12.95,14.34,7.71,20.7-2.61,3.17-7.12,3.9-11.22,4.11-34.58,1.81-69.24-19.28-43.41-53.32Z"/>
  <path class="cls-1" d="m901.35,251.48c11.63-27.35,20.44-55.9,26.24-85.06,1.32-6.64,1.38-15.48-4.92-17.97-6.2-2.46-12.18,3.81-15.82,9.39-27.39,41.96-47.46,88.67-5.5,93.63Z"/>
  <path class="cls-1" d="m768.71,338.21c25.28-4.35,51.55-2.88,76.19,4.25-31.27,23.53-74.02,30.97-76.19-4.25Z"/>
  <path class="cls-1" d="m649.18,442.97c-3.6-10.34,0-21.65.04-32.59s-6.74-24.09-17.65-23.18c-9.19.77-14.31,10.86-16.77,19.75-8.17,29.55-6.27,61.79,34.38,36.02Z"/>
  <path class="cls-1" d="m680.63,904.46c32.13-45.91,90.33-66.41,146.06-72.21,55.74-5.8,112.22.28,167.92-5.9,55.7-6.17,113.74-27.53,144.94-74.08,12.14-18.12,19.8-39.43,34.95-55.12,27.49-28.48,71.33-31.16,110.82-33.84s84.09-10.17,105.96-43.16"/>
  <path class="cls-1" d="m1306.26,665.82c17.97-6.21,38.05-6.12,55.95.27,4.75,1.69,10.01,4.68,10.5,9.7.55,5.57-5.1,9.62-10.23,11.87-30.77,13.53-69.34,6.92-56.23-21.84Z"/>
  <path class="cls-1" d="m1168.5,668.17c-3.78,10.29-7.56,20.59-11.34,30.88,18.47-18.78,31.28-43.06,36.36-68.9.55-2.81.9-6.07-1-8.21-3.16-3.56-8.99-.87-12.67,2.14-27.19,22.26-44.71,55.93-47.35,90.97,4.42.34,8.83.67,36-46.88Z"/>
  <path class="cls-1" d="m1001.95,807.53c32.26,9.01,61.25,29.31,80.74,56.55-29.81-4.9-59-13.56-86.65-25.73-4.68-2.06-9.57-4.44-12.27-8.77s-1.98-11.17,18.18-22.04Z"/>
  <path class="cls-1" d="m834.42,834.66c29.64,19.99,57.22,43.05,82.14,68.69-22.12,12.23-51.65,9.34-70.97-6.95-19.32-16.29-27.17-44.91-11.17-61.74Z"/>
  <path class="cls-1" d="m1278.56,572.69c-15.07-11.42-40.29-.85-44.31,17.62-4.02,18.47,12.31,37.93,31.19,38.94,18.88,1.01,36.54-14.72,39.65-33.36,2.43-14.53-3.75-30.69-16.42-38.2-12.67-7.51-31.22-4.26-10.11,15Z"/>
  <path class="cls-1" d="m1320.39,559.94c6.11-17.57,12.82-36.04,27.15-47.9,14.33-11.86,38.8-13.52,49.72,1.53,9.69,13.35,3.95,33.27-8.14,44.5s-28.68,15.91-44.6,20.23c10.33-14.93,32.4-20.3,48.38-11.67,15.98,8.62,23.6,30.11,16.53,46.84-7.08,16.72-27.92,26.21-45.15,20.45-2.33-.78-4.73-1.91-6.02-4.01-3.32-5.37,4.12-12.32,10.18-10.55,6.06,1.77,9.3,8.46,10.17,14.71,3.09,22.18-15.3,42.81-36.47,50.1-21.18,7.3-44.33,4.54-66.55,1.7-9.78-1.25-20-2.67-28.03-8.38-8.03-5.71-12.89-17.19-7.99-25.74,6.04-10.53,23.94-8.84,30.08,1.63,6.14,10.47,1.48,24.87-8.08,32.36s-22.58,9.12-34.64,7.7c-33.47-3.92-63.26-32-66.97-65.49s20.89-68.4,54.11-74.12c5.16-.89,11.5-.62,14.25,3.83,2.45,3.96.64,9.26-2.23,12.93-12.1,15.42-39.47,10.62-49.8-6.04-10.33-16.67-5.98-39.3,5.61-55.12,11.58-15.82,29.03-26.17,46.36-35.35,26.18-13.86,57.82-26.11,84.47-13.17,25.99,12.62,36.09,49.81,7.66,99.02Z"/>
  <path class="cls-1" d="m650.46,733.04c-7.51-11.54-28.46-7.93-32.73,5.16s8.66,28,22.38,26.83,23.91-16.39,21.06-29.86-16.9-23.11-10.71-2.12Z"/>
  <path class="cls-1" d="m623.88,705.98c-8.99-9.22-24.55-11.43-35.43-4.54s-15.48,22.43-9.55,33.87c5.92,11.44,21.84,16.58,33.07,10.26,4.37-2.46,8.15-7.53,6.36-12.21-1.79-4.67-7.78-5.9-12.79-5.87-13.62.08-27.5,4.63-37.32,14.07s-14.96,24.06-11.49,37.23,16.3,23.76,29.9,23.06,25.72-14,23.71-27.47c-11.8,3.56-15.37,20.6-8.09,30.55s21.5,12.78,33.44,9.74c11.95-3.04,22.07-10.84,31.36-18.93,7.41-6.45,14.93-13.89,16.77-23.54s-5.1-21.39-14.9-20.7c-11.6.82-15.12,18.79-6.65,26.77s22.34,6.85,32.64,1.45c20.6-10.78,31.47-37.24,24.4-59.39-3.25-10.19-10.33-19.61-20.32-23.42s-22.83-.65-28.21,8.59-.21,23.44,10.3,25.36c11.97,2.19,21.97-12.18,19.33-24.05s-13.55-20.19-24.82-24.79c-22.59-9.22-49.48-7.15-51.74,23.97Z"/>
  <path class="cls-1" d="m820.91,278c-2.74-8.93-9.96-15.71-14.27-23.99s-4.37-20.62,3.98-24.8c6.42-3.21,14.57.53,18.68,6.41s5.19,13.31,6.15,20.42c-9.18-1.3-15.2-11.88-13.28-20.95s10.12-15.92,19.1-18.23c6.92-1.78,16.25.28,17.64,7.28.93,4.67-2.21,9.08-5.27,12.73-11.03,13.15-23.37,25.2-36.79,35.91,14.99-5.83,29.98-11.66,44.97-17.49-13.17,14.66-33.64,22.41-40.93,22.71Z"/>
  <path class="cls-1" d="m1012.79,204.31c-7.73-1.46-15.65-2.91-23.42-1.67s-15.49,5.74-18.4,13.05c-3.6,9.04,2.67,20.8,12.3,22.21s19.16-8.95,16.38-18.27c-7.16-.12-11.77,9.33-8.56,15.74s11.56,8.96,18.53,7.28,12.66-6.68,17.27-12.17c4.01-4.78,7.52-10.31,8.18-16.51s-2.24-13.11-8-15.5-13.68,1.8-13.61,8.03c.07,5.47,5.68,9.42,11.1,10.13,14.37,1.89,26.99-14.48,23.41-28.52-3.58-14.04-19.89-22.58-34.11-19.78s-25.44,14.99-1.08,35.99Z"/>
  <path class="cls-1" d="m818.59,717.03c3.77,4.14,11.65-3.16,7.8-7.23-6.08,2.98-9.29,10.78-7.08,17.18,5.96-.72,9.93-8.25,7.16-13.58-5.75-3.36-13.2,5.96-8.66,10.83s14.35-1.91.77-7.19Z"/>
  <path class="cls-1" d="m949.4,726.84l-9.44,23.03c6.33-5.66,6.74-16.7.84-22.81-6.09,1.23-10.22,8.52-7.93,14.29s10.6,8.15,15.46,4.29,4.24-12.74-1.22-15.7-13.38,1.7,2.28-3.1Z"/>
</svg>